<?xml version="1.0" standalone="no"?>
<!DOCTYPE svg PUBLIC "-//W3C//DTD SVG 20010904//EN"
 "http://www.w3.org/TR/2001/REC-SVG-20010904/DTD/svg10.dtd">
<svg version="1.0" xmlns="http://www.w3.org/2000/svg"
 width="1024.000000pt" height="1024.000000pt" viewBox="0 0 1024.000000 1024.000000"
 preserveAspectRatio="xMidYMid meet">
<metadata>
Created by potrace 1.16, written by Peter Selinger 2001-2019
</metadata>
<g transform="translate(0.000000,1024.000000) scale(0.100000,-0.100000)"
fill="#000000" stroke="none">
<path d="M0 5120 l0 -5120 5120 0 5120 0 0 5120 0 5120 -5120 0 -5120 0 0
-5120z m6432 3163 c68 -70 135 -252 167 -449 38 -233 42 -272 41 -385 -2 -130
-15 -237 -36 -292 -8 -20 -14 -48 -14 -61 0 -27 -37 -79 -51 -71 -5 4 -2 22 6
42 8 19 12 40 8 46 -3 5 -1 7 4 4 7 -4 12 8 15 32 2 22 0 37 -4 35 -12 -8 -10
4 8 38 9 18 11 27 4 23 -9 -6 -10 -1 -4 16 5 13 8 39 7 57 -2 36 -3 52 -3 132
0 55 -14 134 -31 178 -5 12 -13 64 -19 115 -26 230 -112 449 -169 430 -57 -20
-241 -253 -233 -295 1 -5 -2 -8 -6 -8 -5 0 -17 -16 -28 -35 -10 -19 -22 -35
-26 -35 -5 0 -8 -5 -8 -11 0 -5 5 -7 10 -4 6 3 10 2 10 -4 0 -5 -4 -12 -9 -16
-6 -3 -38 -62 -72 -131 -51 -101 -79 -143 -151 -223 -137 -155 -150 -146 -60
42 2 4 0 6 -5 5 -28 -10 -5 55 44 126 19 26 29 44 21 40 -7 -4 -3 5 10 20 12
16 19 32 16 37 -5 10 30 82 57 118 11 13 19 30 19 37 0 15 39 79 83 136 16 21
26 41 24 45 -3 5 7 27 23 50 26 38 27 41 9 46 -22 6 -33 -7 -25 -28 3 -9 0
-12 -10 -8 -9 3 -19 -6 -29 -30 -8 -20 -48 -65 -91 -104 -42 -37 -97 -89 -122
-115 -25 -26 -48 -46 -52 -43 -7 4 -36 -22 -93 -84 -21 -23 -56 -53 -78 -67
-70 -44 -111 -65 -116 -60 -3 3 25 37 63 76 56 58 71 69 78 57 8 -13 18 -4 52
41 59 80 103 129 104 115 0 -6 -4 -15 -10 -18 -5 -3 -10 -10 -10 -14 0 -5 64
56 143 134 96 96 157 150 189 165 27 12 45 26 42 31 -3 5 -1 9 3 9 5 0 61 34
124 75 62 41 121 75 129 75 9 0 32 -17 52 -37z m-3067 -1052 c99 -17 200 -38
225 -46 25 -8 63 -17 85 -21 22 -4 45 -11 51 -16 7 -5 16 -8 20 -6 5 1 31 -8
58 -20 27 -12 52 -22 57 -22 4 0 10 -4 14 -9 3 -5 -25 -1 -62 10 -68 20 -100
26 -243 49 -41 6 -97 18 -124 26 -27 8 -66 14 -85 14 -20 0 -58 7 -85 15 -64
20 -88 20 -61 1 11 -7 31 -17 44 -21 29 -9 136 -79 206 -135 28 -22 66 -48 85
-58 19 -9 35 -22 35 -28 0 -9 81 -90 130 -129 7 -5 15 -22 19 -36 5 -25 5 -26
-37 -19 -55 8 -141 55 -185 102 -22 23 -82 61 -159 99 -68 34 -123 68 -123 76
0 7 -7 13 -15 13 -9 0 -26 6 -38 14 -28 19 -176 61 -242 70 l-50 7 35 -32 c22
-19 28 -28 16 -24 -19 6 -19 5 -1 -15 10 -11 14 -20 10 -20 -5 0 2 -12 16 -27
13 -14 18 -23 12 -19 -7 4 -13 2 -13 -3 0 -6 5 -11 11 -11 6 0 9 -6 6 -14 -3
-7 -2 -17 3 -22 4 -5 11 -24 15 -43 6 -30 5 -33 -11 -27 -16 6 -15 3 4 -17 12
-13 22 -28 22 -33 0 -6 16 -37 36 -70 19 -32 37 -68 38 -79 2 -27 38 -92 75
-139 18 -22 30 -45 27 -51 -2 -7 0 -18 6 -26 8 -11 9 -10 4 4 -7 22 -3 22 20
-5 10 -12 13 -18 5 -13 -10 5 -12 4 -7 -4 4 -6 11 -9 15 -6 11 6 46 -33 38
-42 -4 -3 -18 -1 -32 5 -31 14 -33 0 -2 -21 12 -8 51 -43 86 -76 35 -33 72
-63 82 -66 11 -4 19 -10 19 -15 0 -20 -21 -19 -65 1 -49 23 -113 84 -158 152
-16 23 -44 59 -62 80 -55 61 -111 148 -131 202 -10 28 -28 66 -40 85 -20 32
-124 308 -124 329 0 8 -11 34 -49 116 -2 5 8 -4 23 -20 l27 -30 -15 38 c-9 21
-11 35 -6 32 4 -3 10 0 12 5 13 39 281 34 533 -9z m2505 -356 c0 -2 -14 -12
-31 -20 -36 -19 -109 -83 -109 -97 0 -5 5 -6 12 -2 10 7 129 24 258 39 25 3
63 8 85 11 l40 5 -40 -25 c-74 -46 -73 -45 -30 -45 22 0 60 4 85 9 50 10 228
1 209 -11 -8 -5 -6 -8 7 -11 16 -4 14 -7 -11 -17 -87 -37 -84 -34 -40 -40 22
-4 62 -2 89 3 36 7 51 6 54 -2 2 -7 16 -12 30 -13 22 -1 19 -4 -17 -15 -24 -7
-46 -15 -48 -18 -3 -2 35 -3 83 -3 99 2 124 -14 53 -33 -23 -7 -89 -27 -147
-47 -92 -30 -108 -33 -134 -22 -27 11 -129 9 -281 -6 -22 -3 -35 0 -32 5 4 6
13 10 21 10 8 0 14 5 14 10 0 6 14 10 30 10 17 0 30 5 30 10 0 26 -218 -11
-342 -59 -40 -15 -36 1 13 54 23 25 38 45 34 45 -4 0 -44 -26 -89 -57 -84 -59
-186 -116 -186 -104 0 3 14 23 31 44 54 66 25 50 -50 -28 -41 -41 -76 -75 -80
-75 -4 0 -14 -12 -24 -27 -9 -16 -28 -41 -41 -56 -19 -24 -24 -26 -29 -12 -4
9 -3 13 3 10 6 -3 7 1 4 10 -8 19 -30 4 -40 -27 -5 -16 -8 -18 -15 -7 -7 11
-10 9 -15 -8 -4 -13 -10 -23 -15 -23 -5 0 -15 -16 -23 -35 -17 -39 -31 -48
-20 -12 3 12 3 19 -1 15 -5 -4 -13 -4 -19 1 -7 6 -11 1 -12 -15 -1 -13 2 -21
8 -18 6 4 5 -1 -1 -12 -22 -38 -40 -56 -50 -49 -7 3 -8 0 -5 -9 11 -27 -5 -17
-21 13 -43 85 6 300 94 411 16 20 37 53 49 75 11 22 41 60 67 85 l46 45 -17
-40 c-9 -22 -25 -57 -35 -77 -23 -46 -25 -61 -2 -28 41 61 146 169 203 209
l63 44 -28 -49 c-16 -27 -32 -53 -37 -58 -4 -6 -8 -15 -8 -20 1 -6 10 0 22 14
21 24 21 24 15 3 -3 -16 -2 -21 6 -15 7 4 37 24 69 44 57 38 181 92 247 107
46 11 51 12 51 6z m1496 -391 c-44 -65 -104 -134 -118 -134 -15 0 -80 -41 -74
-47 3 -3 20 5 38 17 l33 22 -30 -26 c-16 -14 -35 -26 -40 -26 -6 0 -28 -9 -50
-20 -22 -11 -48 -21 -60 -21 -11 -1 0 -5 25 -9 25 -4 53 -3 63 2 9 5 17 5 17
0 0 -11 -71 -42 -115 -49 -44 -7 -46 -23 -3 -23 60 0 13 -22 -55 -26 -36 -2
-76 -8 -89 -13 -17 -6 -29 -5 -43 5 -10 8 -27 14 -37 14 -10 0 -21 6 -24 13
-3 8 -18 12 -42 9 -36 -3 -36 -2 -17 14 20 16 20 16 -5 10 -14 -4 -41 -9 -60
-12 l-35 -5 25 15 25 15 -25 1 c-14 0 -36 -7 -49 -16 -22 -16 -23 -16 -12 4 6
11 25 32 43 48 22 18 26 25 13 21 -16 -6 -15 -3 5 13 l25 20 -35 -11 c-19 -6
-56 -14 -81 -18 -56 -9 -56 3 1 38 28 17 36 27 27 33 -9 6 -9 8 2 8 17 0 114
61 107 67 -3 3 -15 -2 -28 -11 -12 -9 -32 -16 -44 -16 -11 0 -47 -9 -79 -20
-31 -11 -61 -18 -65 -15 -5 3 -11 -1 -13 -7 -3 -7 -5 1 -4 17 0 17 4 35 8 40
6 9 19 60 21 82 2 16 56 41 94 43 57 4 141 -1 127 -7 -24 -9 -13 -23 20 -24
17 -1 43 -4 57 -8 23 -7 24 -8 6 -18 -55 -31 48 -42 143 -16 30 8 71 13 93 10
86 -11 262 27 313 67 43 35 43 14 1 -50z m-2271 29 c-4 -10 -8 -29 -10 -43 -5
-38 -22 -99 -44 -162 -29 -84 -34 -136 -18 -195 16 -60 12 -67 -42 -83 -28 -8
-36 -5 -66 22 -26 22 -35 39 -36 62 0 25 -2 27 -8 11 -6 -15 -10 -9 -15 29 -4
27 -10 55 -13 62 -3 8 0 14 6 14 6 0 11 -8 12 -17 0 -10 3 -13 5 -6 3 7 1 21
-5 31 -12 23 4 111 40 217 l24 70 11 -90 c7 -49 16 -101 21 -113 9 -22 11 -20
39 35 49 93 95 173 101 173 3 0 2 -8 -2 -17z m-680 -300 c68 -56 145 -158 165
-220 19 -57 20 -64 6 -90 -8 -15 -15 -23 -16 -18 0 6 -4 3 -10 -5 -7 -12 -12
-11 -32 5 -18 16 -20 16 -9 2 8 -9 11 -20 8 -23 -2 -3 -26 21 -52 53 -77 95
-165 184 -243 247 -40 32 -70 61 -68 64 3 3 13 -1 23 -9 9 -8 14 -9 10 -2 -12
19 54 8 98 -17 22 -13 53 -35 69 -49 26 -24 28 -24 17 -4 -16 30 -14 38 6 22
15 -13 15 -12 5 7 -6 12 -26 34 -44 49 l-33 28 35 -8 c19 -4 49 -19 65 -32z
m-271 -27 c17 -7 60 -34 96 -59 71 -49 167 -144 136 -133 -16 5 -17 4 -6 -9 7
-8 18 -15 25 -15 6 0 17 -12 23 -26 9 -18 9 -23 1 -18 -8 4 -9 -1 -4 -17 5
-13 8 -32 9 -42 1 -10 8 -22 16 -27 36 -23 -7 -7 -54 19 -59 34 -153 61 -189
54 -13 -3 -28 0 -31 6 -4 6 -17 11 -29 10 -21 -1 -20 -2 3 -9 21 -7 19 -8 -15
-7 -74 2 -126 -3 -121 -12 8 -13 -14 -27 -53 -35 -68 -12 -111 -27 -111 -36 0
-6 9 -10 19 -10 31 0 32 -15 3 -27 -15 -7 -53 -23 -86 -37 -32 -14 -65 -26
-74 -26 -21 0 -7 -13 31 -27 18 -6 24 -12 15 -12 -10 -1 -18 -5 -18 -10 0 -4
-19 -21 -42 -37 -53 -35 -87 -74 -81 -91 3 -7 -2 -13 -10 -13 -9 0 -18 -8 -22
-19 -6 -21 -65 -76 -65 -61 0 5 -6 7 -14 4 -8 -3 -12 -12 -10 -19 5 -13 -45
-55 -66 -55 -9 0 -9 4 1 18 13 16 13 16 -7 0 -11 -10 -29 -18 -38 -18 -17 0
-17 2 -2 25 24 37 20 39 -26 7 -45 -30 -71 -43 -100 -48 -34 -7 -6 31 96 129
55 54 92 95 81 92 -14 -5 -10 2 13 22 17 16 32 34 32 39 0 5 14 20 30 34 17
14 30 30 30 37 0 6 10 19 22 27 l22 16 -29 0 -30 0 33 20 c35 21 42 33 15 23
-26 -9 57 67 87 80 23 10 19 12 -35 17 l-60 5 55 22 c30 13 73 27 95 32 29 6
33 9 15 10 -14 1 -43 8 -65 16 -39 14 -39 14 -10 15 24 1 26 3 11 9 -27 10 1
21 37 14 21 -4 26 -2 22 9 -8 20 100 43 161 33 54 -8 52 4 -6 30 -28 13 -37
21 -28 27 37 23 207 -9 282 -53 20 -11 36 -18 36 -15 0 3 -27 34 -59 68 -33
35 -57 66 -55 70 6 10 56 2 98 -16z m3066 -6 c-8 -5 -10 -10 -5 -10 6 0 16
-13 22 -29 9 -24 8 -31 -3 -35 -25 -9 -15 -23 14 -20 l27 4 -31 -14 c-30 -14
-64 -46 -49 -46 5 0 17 7 27 17 10 9 18 12 18 6 0 -14 -55 -64 -63 -57 -4 4
-12 2 -19 -3 -18 -15 -88 -26 -88 -15 0 6 11 13 25 16 14 4 25 10 25 15 0 6
-12 6 -28 2 -15 -5 -51 -6 -79 -4 -43 5 -50 8 -46 24 3 11 12 19 20 19 8 0 11
5 8 11 -4 6 -13 8 -21 5 -8 -3 -14 1 -14 10 0 11 6 14 23 9 16 -5 18 -4 8 4
-12 7 -6 13 25 26 21 10 57 26 79 36 53 26 157 50 125 29z m-4550 -259 c0 -26
-21 -60 -33 -55 -10 3 -25 -11 -43 -42 -16 -25 -39 -57 -50 -70 -73 -78 -72
-299 2 -529 27 -84 82 -194 117 -232 11 -13 18 -26 14 -29 -3 -3 -21 18 -40
47 -136 214 -203 505 -153 672 9 31 21 57 26 57 6 0 10 6 10 14 0 14 70 113
109 154 23 23 41 29 41 13z m3605 -337 c-130 -44 -350 -145 -454 -208 -31 -19
-69 -38 -86 -41 -40 -10 -115 -46 -115 -57 0 -4 -6 -8 -13 -8 -7 0 -22 -7 -33
-16 -18 -14 -18 -15 6 -8 14 3 47 20 75 38 69 43 125 60 144 41 12 -11 12 -17
1 -29 -11 -14 -8 -16 26 -16 22 0 84 9 139 21 152 31 301 49 395 47 l85 -1
-110 -7 c-120 -9 -270 -32 -351 -56 -28 -8 -68 -17 -89 -19 -43 -6 -59 -15
-29 -16 25 -1 -32 -28 -61 -29 -12 0 -38 -9 -59 -19 -21 -11 -51 -23 -67 -26
-16 -4 -29 -11 -29 -16 0 -13 60 1 98 22 18 11 30 15 27 9 -8 -13 -3 -13 30 0
23 9 26 8 21 -7 -5 -17 4 -18 142 -11 81 3 197 4 257 0 109 -7 107 -7 -100
-14 -305 -10 -377 -19 -410 -49 -5 -5 12 -3 38 5 50 15 60 7 31 -26 -16 -17
-15 -19 19 -33 20 -8 42 -15 49 -15 7 0 49 -14 93 -31 94 -35 79 -33 -66 10
-58 17 -115 31 -127 31 -14 0 -31 -17 -53 -52 -104 -170 -237 -258 -389 -258
-57 0 -130 20 -130 36 0 15 74 82 84 77 6 -4 8 -3 4 1 -4 5 9 31 28 58 69 98
87 166 63 239 -16 47 -51 82 -120 118 -56 30 -58 33 -64 79 -3 26 -9 63 -12
82 -9 52 -10 150 -1 150 4 0 5 6 2 14 -5 12 0 12 33 1 21 -8 47 -14 58 -15 12
0 25 -4 31 -10 11 -11 183 -75 269 -100 33 -9 69 -20 80 -25 29 -12 85 -54 85
-65 0 -5 -16 -17 -35 -26 -20 -9 -34 -19 -31 -21 10 -10 89 23 280 118 176 88
406 177 456 177 8 0 -43 -19 -115 -44z m-3367 -12 c49 -32 73 -124 47 -185
-10 -25 -22 -37 -35 -37 -11 0 -20 -4 -20 -10 0 -5 -4 -10 -9 -10 -4 0 -7 10
-6 23 2 15 -5 28 -17 36 -12 7 -17 8 -13 2 3 -7 -2 -11 -14 -11 -24 0 -25 -4
-10 -31 8 -16 7 -23 -7 -33 -9 -7 -14 -18 -10 -24 11 -19 40 -14 54 8 7 12 17
18 22 15 12 -7 -30 -50 -50 -50 -17 -1 -40 19 -40 34 0 5 6 16 14 23 12 12 12
18 0 39 -13 24 -13 24 -14 -11 -1 -19 -4 -30 -6 -23 -4 8 -13 9 -30 3 -32 -12
-46 -6 -68 31 -14 24 -17 42 -12 82 10 77 42 128 91 143 45 14 99 8 133 -14z
m1806 -148 c9 -8 16 -12 16 -8 0 5 4 4 10 -2 5 -5 23 -61 39 -123 l28 -114
-30 -61 c-40 -81 -44 -176 -9 -220 55 -71 136 -105 267 -111 l80 -4 17 -37 16
-38 -31 -34 c-18 -18 -48 -42 -67 -52 -48 -24 -168 -50 -232 -50 -60 1 -154
31 -151 49 2 6 -2 11 -7 11 -6 0 -8 11 -4 25 5 21 3 24 -10 19 -10 -4 -15 -12
-13 -18 3 -6 -7 -20 -20 -30 -24 -18 -25 -18 -15 0 5 11 7 25 4 33 -3 8 -36
-18 -95 -75 -84 -82 -83 -74 2 19 19 20 31 37 27 37 -5 0 -3 6 3 13 8 10 6 19
-10 36 -16 17 -18 26 -10 34 15 15 14 24 -3 24 -8 0 -15 -3 -14 -6 2 -22 -15
-40 -124 -127 -68 -54 -152 -125 -188 -158 l-65 -60 55 57 c30 32 97 93 149
135 142 115 171 143 165 154 -7 11 16 30 69 59 22 11 36 23 33 26 -3 3 -28 -9
-56 -26 -58 -36 -60 -36 -60 -16 0 19 -19 19 -39 1 -9 -8 -83 -49 -166 -91
-156 -81 -196 -105 -355 -215 -87 -60 -159 -106 -100 -63 13 10 38 30 55 44
59 52 262 178 400 249 77 40 148 79 157 87 12 11 17 30 16 59 0 40 -3 44 -27
45 -24 2 -24 2 -3 6 16 3 25 14 29 34 3 16 14 34 23 39 10 5 25 28 34 50 9 22
19 40 23 40 5 0 9 16 11 35 1 20 8 46 16 58 8 12 17 37 21 55 6 27 11 32 36
32 18 0 28 4 24 10 -4 6 -10 8 -14 6 -4 -3 -12 -1 -19 3 -9 5 -4 18 18 46 16
21 30 44 30 52 0 18 31 73 41 73 4 0 15 -7 23 -16z m-1288 -137 c15 -13 28
-36 30 -52 1 -16 8 -31 15 -34 8 -2 7 -6 -2 -12 -11 -7 -11 -11 -2 -17 12 -8
12 -50 -1 -70 -4 -7 -2 -12 5 -12 7 0 4 -6 -7 -14 -10 -8 -16 -17 -12 -21 9
-10 -49 -58 -61 -51 -5 4 -12 2 -16 -4 -3 -5 2 -10 11 -10 15 0 14 -4 -7 -27
-13 -16 -17 -22 -9 -15 8 6 27 12 44 12 28 0 29 -1 10 -15 -19 -14 -19 -14 1
-15 11 -1 14 -4 8 -7 -27 -10 -12 -24 20 -19 28 5 25 2 -18 -19 -27 -14 -57
-25 -66 -25 -9 0 -29 -7 -45 -15 -15 -8 -30 -12 -33 -10 -8 9 32 45 43 38 6
-3 8 -3 4 2 -4 4 -2 15 5 23 10 13 8 14 -12 7 -23 -7 -22 -5 8 32 20 25 29 46
25 56 -4 11 0 19 10 23 16 6 23 34 8 34 -5 0 -22 -14 -39 -30 -22 -22 -30 -25
-27 -13 3 10 20 28 38 40 18 12 36 31 39 42 3 12 4 21 3 21 -1 0 -19 -9 -41
-20 -22 -11 -58 -20 -81 -20 -24 0 -54 -4 -69 -10 -20 -8 -25 -7 -19 3 16 29
48 56 58 50 6 -3 8 -2 3 2 -4 5 3 19 15 32 12 13 27 37 33 52 13 36 75 111 92
111 6 0 24 -10 39 -23z m4304 -7 c-6 -11 -43 -47 -83 -81 -39 -34 -76 -66 -82
-73 -5 -6 -23 -17 -38 -24 -15 -6 -25 -17 -22 -22 3 -5 0 -7 -8 -4 -8 3 -18 1
-22 -5 -3 -6 -1 -11 4 -11 6 0 10 -3 9 -7 -5 -15 33 -61 54 -66 26 -7 190 124
260 208 33 40 46 50 45 35 -1 -11 -6 -20 -12 -21 -5 0 -28 -22 -50 -47 -40
-48 -88 -90 -193 -170 -51 -39 -58 -42 -67 -27 -5 10 -24 34 -41 55 -26 33
-33 36 -51 26 -32 -18 -100 -79 -80 -72 10 3 15 2 12 -3 -3 -6 -14 -9 -24 -8
-25 2 -138 -67 -117 -71 9 -2 23 4 32 12 20 20 23 20 20 -1 -2 -14 -13 -18
-47 -19 -24 0 -55 -7 -69 -16 -51 -32 -177 -112 -232 -148 -32 -20 -55 -39
-52 -42 3 -3 0 -9 -7 -14 -8 -5 -10 -3 -4 6 5 8 3 11 -6 8 -8 -3 -13 -12 -11
-19 2 -8 1 -11 -3 -8 -5 6 -260 -143 -293 -171 -7 -6 -17 -8 -22 -5 -6 4 -13
-1 -16 -9 -3 -9 -10 -13 -15 -10 -5 3 -6 -1 -3 -9 3 -8 1 -18 -5 -22 -7 -4
-11 3 -11 17 l-1 23 -20 -25 c-11 -13 -27 -25 -35 -26 -8 -1 -27 -11 -41 -21
-14 -10 -38 -25 -52 -34 -14 -9 -25 -22 -23 -29 1 -6 -2 -9 -8 -5 -16 10 -100
-74 -93 -93 5 -13 3 -15 -7 -5 -10 9 -16 9 -27 -2 -7 -8 -13 -18 -13 -22 1 -4
-7 -10 -17 -14 -15 -7 -16 -8 -1 -8 14 -1 35 -51 30 -73 -1 -4 7 -9 17 -13 19
-6 60 -45 47 -45 -10 0 -65 39 -101 72 -16 14 -43 29 -60 33 -27 5 -28 4 -11
-7 10 -7 53 -38 95 -69 42 -31 87 -60 101 -64 19 -6 121 -58 138 -71 5 -3 -96
-131 -106 -136 -7 -3 -48 -50 -181 -207 -63 -75 -151 -164 -151 -153 0 5 25
34 56 63 30 30 74 79 97 109 23 30 48 62 57 71 38 40 58 68 53 73 -4 3 0 6 8
6 8 0 30 19 49 42 19 23 50 58 68 78 33 38 41 60 21 60 -6 0 -24 9 -40 21 -35
24 -86 42 -141 48 -5 1 -8 8 -8 17 0 9 -9 18 -20 21 -11 3 -20 9 -20 13 0 5
-14 19 -32 31 -28 20 -31 21 -25 5 6 -16 5 -17 -8 -6 -9 7 -18 10 -21 7 -3 -3
3 -12 15 -19 12 -7 21 -17 21 -22 0 -6 -5 -5 -12 2 -21 21 -29 13 -11 -12 10
-13 23 -22 29 -19 15 5 25 -20 14 -37 -6 -9 -13 -7 -29 9 -14 14 -21 17 -21 7
0 -7 -7 -19 -15 -26 -12 -10 -15 -10 -15 1 0 10 -5 9 -17 -4 -16 -16 -15 -19
26 -55 l43 -38 -15 -44 c-8 -25 -13 -61 -11 -80 l4 -35 -10 30 c-10 32 -3 105
11 105 20 0 7 31 -18 47 -16 10 -31 22 -35 27 -11 16 -32 -9 -57 -66 -42 -96
-105 -223 -113 -229 -5 -3 -6 -13 -3 -22 4 -10 -2 -21 -17 -31 -13 -9 -35 -35
-48 -58 -17 -31 -19 -39 -7 -29 15 12 17 11 17 -3 0 -9 -5 -16 -11 -16 -5 0
-8 -4 -5 -9 3 -4 -1 -17 -9 -27 -11 -15 -17 -16 -23 -6 -6 9 -12 6 -20 -13 -7
-15 -10 -30 -7 -34 2 -4 -4 -17 -14 -28 -29 -31 -55 -87 -43 -91 6 -2 8 -11 5
-20 -9 -24 2 -13 36 38 16 24 27 48 25 52 -3 5 -1 7 5 6 13 -4 62 63 54 75 -3
6 -1 7 5 3 7 -4 31 11 57 35 25 23 45 37 45 32 0 -5 -20 -27 -45 -49 -25 -21
-66 -68 -92 -104 -26 -36 -49 -67 -52 -70 -21 -19 -157 -242 -202 -332 -18
-37 -35 -66 -36 -64 -3 3 35 96 82 201 84 189 124 272 221 463 125 246 181
376 214 497 40 145 42 148 143 213 51 33 182 112 292 177 110 65 274 161 365
215 91 53 215 127 275 165 61 38 153 94 205 125 52 31 140 88 195 128 55 39
124 88 154 109 29 21 72 57 95 80 47 48 51 51 36 23z m-5743 -508 c-10 -2 -17
-10 -17 -17 0 -18 -114 -242 -134 -264 -9 -10 -13 -21 -10 -24 4 -4 0 -9 -8
-12 -9 -4 -14 -14 -11 -25 3 -10 0 -21 -6 -24 -6 -4 -11 -15 -11 -24 0 -9 -16
-44 -36 -77 -20 -33 -66 -118 -102 -190 -36 -71 -72 -138 -80 -147 -27 -32
-30 -19 -7 30 13 26 37 74 52 107 81 167 318 634 336 662 17 26 24 29 36 20
12 -10 12 -12 -2 -15z m3586 11 c-14 -9 -23 -26 -23 -41 0 -18 -24 -48 -87
-112 -107 -106 -165 -133 -283 -133 -61 0 -84 5 -125 26 -49 25 -50 26 -25 36
14 5 19 10 10 11 -38 4 46 26 90 24 28 -2 48 1 46 5 -3 4 11 13 30 20 20 7 66
30 103 52 37 21 96 49 131 63 36 14 83 34 105 45 46 25 59 26 28 4z m-2452
-346 c18 -12 35 -29 37 -37 3 -8 -4 -5 -14 8 -11 13 -35 25 -56 28 -33 6 -45
0 -125 -56 -139 -99 -141 -100 -159 -100 -14 0 -15 -2 -3 -17 13 -15 12 -15
-9 -4 -19 10 -23 10 -20 -2 2 -10 -18 -26 -54 -45 -31 -17 -90 -55 -130 -85
-53 -39 -79 -52 -93 -47 -15 5 9 24 112 92 71 48 136 92 144 100 8 8 21 17 29
21 8 4 69 42 136 85 67 42 132 78 146 79 14 2 40 -7 59 -20z m-1674 -159 c23
-9 25 -12 9 -16 -10 -2 -23 1 -29 7 -25 25 -54 12 -71 -29 -9 -22 -16 -46 -15
-53 0 -6 5 -1 10 12 16 41 20 17 5 -32 -8 -26 -10 -44 -5 -41 5 3 9 3 9 0 0
-8 -30 -89 -41 -108 -6 -12 -6 -18 1 -18 5 0 10 -5 10 -11 0 -5 -4 -8 -9 -4
-6 3 -13 -16 -17 -42 -4 -27 -13 -57 -19 -68 -7 -11 -16 -38 -19 -60 -9 -52
-26 -96 -36 -90 -4 3 -11 -10 -14 -29 -4 -19 -13 -39 -21 -46 -8 -7 -15 -23
-15 -36 0 -13 -4 -24 -10 -24 -18 0 -10 32 29 114 73 152 105 255 115 366 14
161 19 196 34 208 20 15 62 16 99 0z m2010 -169 c-22 -13 -22 -30 0 -22 13 5
15 2 10 -11 -4 -10 -1 -19 8 -22 22 -9 18 -26 -4 -19 -10 3 -23 -1 -30 -9 -7
-8 -19 -12 -27 -9 -9 3 -14 -2 -14 -17 0 -11 3 -19 8 -16 10 6 43 -19 41 -30
-5 -17 75 -163 84 -157 6 3 7 1 3 -5 -4 -7 -1 -21 7 -33 8 -11 17 -17 19 -12
3 4 3 3 2 -4 -2 -7 5 -27 14 -45 l17 -33 3 27 c3 24 6 27 23 18 10 -6 19 -15
19 -21 0 -6 -4 -8 -9 -5 -10 7 -21 -15 -27 -56 -4 -20 0 -30 15 -38 12 -6 21
-20 20 -33 0 -21 -1 -21 -10 -2 -6 14 -8 0 -4 -44 3 -35 3 -62 1 -60 -2 2 -14
51 -26 108 -12 57 -32 124 -43 150 -21 47 -89 158 -154 249 -21 29 -39 57 -41
62 -3 8 9 22 54 62 10 9 25 24 33 33 7 9 16 13 19 10 4 -4 -1 -11 -11 -16z
m-1919 -258 c3 -10 -1 -12 -18 -8 -16 4 -28 0 -36 -11 -22 -28 -16 -39 22 -45
48 -8 143 -71 129 -86 -3 -2 -10 1 -17 6 -7 6 -21 9 -31 8 -9 -2 -15 1 -12 5
3 5 -3 14 -14 20 -13 7 -22 7 -26 0 -3 -5 -23 -11 -43 -11 -24 -1 -29 -3 -14
-6 12 -2 20 -9 17 -14 -8 -12 -42 -12 -48 1 -3 6 -4 5 -3 -2 2 -7 15 -13 29
-13 64 -2 18 -25 -57 -29 -13 -1 -20 -8 -20 -19 1 -9 -2 -14 -7 -11 -5 3 -17
-9 -28 -26 -10 -18 -21 -28 -24 -23 -9 15 14 93 28 93 7 0 24 27 38 60 15 33
33 60 40 60 8 0 22 16 33 35 20 37 52 45 62 16z m1975 -248 c-7 -20 -82 -93
-95 -93 -4 0 -8 -4 -8 -10 0 -5 -3 -9 -7 -9 -21 3 -34 -2 -28 -11 4 -6 1 -18
-6 -26 -14 -17 -97 -74 -107 -74 -4 0 -7 16 -6 35 2 30 0 34 -12 24 -8 -6 -14
-27 -14 -45 0 -40 -3 -41 -31 -13 -11 11 -23 18 -26 15 -3 -3 7 -16 22 -29 23
-19 26 -27 17 -43 -8 -14 -8 -41 -2 -85 5 -35 10 -70 10 -76 0 -7 8 -13 18
-14 9 0 12 -3 5 -5 -7 -4 -10 -24 -7 -62 4 -53 3 -52 -15 28 -10 47 -30 130
-45 185 -14 55 -26 105 -26 112 0 6 24 23 53 38 81 41 167 88 242 134 38 22
70 41 72 41 1 0 0 -8 -4 -17z m-1584 -65 c45 -33 81 -74 81 -90 0 -21 -47 -90
-99 -146 -38 -42 -27 -24 43 72 32 44 46 72 41 83 -4 13 -8 14 -14 5 -6 -10
-11 -10 -21 3 -7 8 -19 15 -26 15 -8 0 -14 5 -14 10 0 6 4 10 9 10 6 0 13 -4
16 -10 3 -5 11 -10 17 -10 6 0 3 9 -7 20 -21 23 -72 24 -67 3 1 -7 -5 -13 -13
-13 -9 0 -12 6 -8 17 5 13 0 12 -28 -7 -46 -32 -47 -34 -22 -26 16 5 29 1 45
-13 12 -12 19 -21 15 -22 -29 -4 -65 -1 -76 5 -15 9 -16 8 -26 -22 -6 -21 -4
-23 14 -17 17 5 21 2 21 -14 0 -11 -5 -23 -10 -26 -6 -4 -8 -11 -5 -16 4 -5
-10 0 -29 12 -33 19 -36 20 -36 3 0 -10 10 -29 23 -43 l22 -26 -27 23 c-51 45
-45 81 30 187 52 73 58 77 100 59 20 -8 43 -20 51 -26z m3939 -205 c-30 -37
-63 -81 -74 -98 -10 -16 -51 -73 -90 -125 -77 -101 -239 -407 -294 -555 -17
-44 -56 -147 -87 -230 -69 -187 -75 -200 -67 -155 3 19 26 85 51 145 24 61 59
154 78 207 18 53 40 109 48 125 8 15 50 98 92 183 80 158 95 184 165 280 22
30 52 73 67 95 15 22 41 56 58 77 16 20 46 57 65 82 19 25 36 43 38 41 2 -2
-20 -34 -50 -72z m777 27 c302 -68 335 -82 319 -137 l-8 -28 -4 28 c-2 17 -13
32 -31 42 -44 22 -320 86 -389 90 -34 1 -68 7 -75 13 -7 6 -37 8 -74 5 -52 -5
-63 -9 -72 -30 -6 -13 -11 -31 -11 -39 0 -8 -4 -22 -10 -32 -38 -68 -73 -176
-90 -277 -18 -106 -39 -176 -40 -135 0 8 -11 -3 -24 -25 -13 -22 -22 -44 -19
-50 3 -5 0 -5 -6 1 -10 9 -9 20 4 50 9 22 36 104 60 184 62 206 114 343 133
354 9 6 30 11 46 13 16 2 32 6 35 9 10 10 119 -6 256 -36z m-59 -120 c38 -12
80 -26 93 -33 77 -38 86 -252 15 -336 -58 -70 -125 -89 -239 -70 -74 13 -128
47 -155 98 -33 66 -35 109 -6 191 35 103 75 141 166 160 53 11 53 11 126 -10z
m-5134 -38 c2 -4 17 -17 35 -27 17 -11 111 -81 208 -155 97 -74 215 -163 263
-198 48 -35 112 -84 144 -109 63 -50 110 -125 91 -144 -9 -9 -11 -7 -7 7 8 34
-32 80 -135 155 -56 41 -155 116 -222 167 -67 51 -123 91 -125 89 -3 -2 12
-22 33 -43 37 -38 14 -23 -39 25 -16 14 -28 21 -28 17 0 -10 -85 52 -107 78
-10 11 0 6 21 -11 22 -18 43 -30 48 -27 4 3 11 -2 14 -10 3 -9 10 -14 14 -11
5 3 11 1 15 -5 3 -5 12 -10 18 -10 17 1 -40 46 -93 74 -25 13 -50 21 -56 19
-6 -2 -19 6 -29 17 -10 11 -13 20 -7 20 6 0 14 -4 17 -10 3 -5 11 -10 17 -10
6 0 5 6 -3 16 -7 9 -21 13 -33 10 -12 -3 -29 2 -40 12 -12 11 -16 12 -11 3 6
-10 4 -13 -6 -9 -49 19 -59 19 -59 3 0 -9 -12 -42 -26 -72 -14 -31 -23 -66
-20 -77 2 -12 -1 -46 -9 -76 -11 -44 -14 -49 -15 -25 -1 17 -21 -46 -45 -140
-25 -99 -41 -182 -38 -200 4 -23 2 -27 -6 -15 -9 12 -11 9 -11 -15 0 -23 13
-43 53 -85 75 -78 203 -185 335 -280 109 -79 153 -102 180 -93 16 6 156 194
277 373 53 80 94 134 90 120 -7 -23 -7 -24 10 -10 17 14 17 14 2 -15 -8 -16
-23 -39 -32 -50 -16 -19 -16 -18 0 8 9 16 14 34 12 40 -2 7 -11 -2 -20 -19 -9
-17 -36 -61 -62 -99 -25 -38 -44 -74 -41 -82 3 -7 0 -15 -6 -19 -7 -4 -8 -3
-4 4 4 7 4 12 -1 11 -14 0 -93 -118 -88 -131 3 -7 -20 -44 -50 -82 -30 -38
-55 -65 -55 -62 0 4 16 28 36 52 20 25 35 47 32 50 -4 3 -72 -73 -83 -93 -5
-9 -54 -9 -70 0 -11 5 -73 48 -138 94 -117 83 -135 93 -121 71 13 -21 -20 5
-108 85 -48 44 -86 83 -83 87 2 4 -9 20 -25 35 -35 34 -40 23 -7 -14 l22 -26
-24 20 c-33 28 -54 73 -48 104 2 14 28 114 56 221 28 107 56 218 62 245 6 28
15 55 19 60 4 6 13 34 20 63 17 72 77 140 92 104z m41 -309 c-2 -36 -1 -43 6
-28 13 27 13 19 0 -49 -9 -51 -8 -60 8 -78 10 -11 27 -24 38 -29 17 -6 17 -8
3 -8 -10 -1 -28 9 -39 20 -17 17 -23 19 -31 8 -7 -10 -8 -5 -4 16 4 17 8 48
11 70 l4 40 -9 -40 c-15 -63 -36 -116 -43 -108 -4 3 -7 -1 -7 -9 0 -8 -11 -27
-25 -42 -29 -32 -31 -41 -9 -58 43 -36 55 -51 50 -64 -3 -8 -2 -14 3 -14 4 0
13 -12 20 -27 10 -22 14 -24 22 -12 6 9 9 10 9 2 0 -22 14 -14 32 17 9 17 21
30 25 30 12 0 15 -48 4 -55 -5 -3 -7 5 -4 17 4 22 4 22 -10 -1 -8 -14 -13 -31
-10 -38 6 -15 -13 -18 -22 -3 -9 15 -25 12 -25 -5 0 -8 8 -15 18 -16 10 0 12
-3 5 -6 -24 -9 -14 -58 17 -88 32 -30 74 -43 85 -25 3 5 11 10 17 10 7 0 6 -6
-2 -15 -7 -8 -26 -15 -43 -15 -39 0 -97 59 -97 99 0 30 -34 116 -50 126 -5 3
-7 11 -4 18 2 7 -5 22 -17 33 l-22 19 7 -40 6 -40 -20 35 c-30 54 -25 87 20
153 40 58 70 144 70 202 0 25 6 45 14 45 1 0 0 -21 -1 -47z m3907 -179 c-28
-76 -57 -153 -65 -170 -18 -38 -150 -433 -199 -594 -41 -134 -66 -253 -66
-310 0 -22 -5 -40 -10 -40 -13 0 -5 75 21 190 21 92 159 535 188 605 12 29
138 371 158 430 9 27 18 45 20 39 2 -6 -19 -73 -47 -150z m2682 -126 c176 -69
181 -70 223 -64 23 3 49 8 58 12 9 3 17 2 17 -3 0 -14 -100 -34 -129 -26 -17
4 -22 3 -17 -5 4 -7 24 -12 44 -13 l37 -1 -35 -9 c-26 -6 -38 -4 -46 7 -15 20
-23 18 -46 -11 -11 -14 -25 -25 -31 -25 -14 0 -67 -54 -67 -68 0 -5 -7 -15
-15 -22 -10 -9 -15 -9 -15 -1 0 17 -17 13 -38 -9 l-19 -21 5 27 c4 21 2 25 -8
19 -10 -6 -12 -4 -7 8 3 9 2 19 -3 22 -12 8 -8 -118 5 -128 6 -5 3 -7 -7 -3
-10 3 -20 1 -23 -4 -6 -9 16 -15 40 -11 6 1 -3 -9 -20 -23 -39 -33 -75 -35
-68 -3 3 12 19 35 36 50 23 22 28 33 23 55 -3 15 -13 56 -21 92 -8 36 -18 103
-21 149 l-7 84 26 -17 c14 -10 72 -35 129 -58z m575 -81 c4 -101 3 -137 -5
-137 -23 0 -12 -30 13 -36 14 -3 25 -10 25 -16 0 -11 -38 -1 -59 16 -11 8 -13
8 -7 -1 4 -8 2 -13 -5 -13 -10 0 -10 -3 -1 -12 7 -7 12 -20 12 -30 0 -24 9
-23 31 4 27 30 24 15 -6 -32 -14 -22 -30 -40 -37 -40 -6 0 -21 -8 -32 -17 -20
-17 -20 -17 -6 1 14 18 13 19 -2 13 -23 -8 -23 -4 2 18 20 18 21 18 15 -1 -7
-19 -6 -19 9 0 11 13 16 15 16 6 0 -7 3 -10 7 -7 3 4 -2 16 -12 27 -10 11 -13
20 -7 20 19 0 14 17 -10 40 -17 16 -18 19 -5 15 10 -4 17 -2 17 4 0 6 -5 11
-11 11 -5 0 -7 5 -3 12 4 7 3 8 -4 4 -19 -12 -35 3 -21 20 9 11 8 15 -5 20 -9
3 -14 10 -11 14 3 4 -6 15 -20 24 -30 20 -47 21 -21 1 11 -8 21 -21 22 -28 1
-6 6 -21 10 -32 7 -17 6 -18 -8 -7 -8 7 -24 11 -36 9 -22 -3 -92 -48 -92 -59
0 -9 -54 -38 -70 -38 -7 0 -10 6 -7 13 2 6 15 11 28 9 20 -2 21 -1 9 8 -13 10
-13 11 1 7 10 -3 26 5 40 19 12 13 19 24 16 24 -4 0 1 8 11 18 10 10 31 18 47
18 15 -1 30 5 32 12 3 7 -1 10 -10 7 -10 -4 -14 2 -15 25 0 16 1 30 3 30 15 0
83 -45 79 -52 -6 -9 33 -58 45 -58 4 0 12 9 19 21 8 12 9 18 4 15 -6 -3 -10
48 -10 131 -2 178 16 164 25 -20z m-6726 100 c8 -14 1 -36 -34 -100 -24 -45
-42 -88 -40 -94 3 -7 0 -13 -5 -13 -5 0 -12 -10 -16 -23 -8 -35 -63 -87 -89
-86 -16 0 -18 2 -7 7 18 8 25 32 9 32 -7 0 -21 -10 -32 -22 -15 -17 -18 -18
-14 -5 7 19 6 20 -17 11 -12 -5 -13 -11 -6 -27 10 -20 9 -20 -2 -3 -7 11 -21
28 -31 39 -19 19 -18 19 5 12 23 -8 23 -8 4 14 -11 11 -14 21 -8 21 6 0 16 -8
21 -19 16 -29 45 -31 80 -4 40 32 43 82 6 119 -25 25 -34 64 -15 64 6 0 10 7
10 15 0 8 4 15 8 15 5 0 7 15 5 33 l-3 32 10 -29 c7 -24 5 -36 -12 -64 -15
-25 -18 -36 -9 -45 8 -8 11 -6 12 9 0 15 2 16 7 4 4 -8 14 -15 22 -15 9 0 16
-11 17 -25 l3 -25 -10 24 c-13 30 -23 22 -14 -13 3 -14 11 -23 17 -19 5 3 17
-3 25 -13 13 -18 14 -17 8 14 -4 23 0 45 13 71 20 37 51 71 51 55 1 -11 30 27
30 39 0 4 -4 5 -10 2 -5 -3 -7 0 -4 9 5 12 -3 14 -50 9 -31 -3 -56 -2 -56 3 0
5 25 9 56 9 43 0 58 -4 65 -18z m3846 -67 c29 -50 139 -203 220 -308 49 -62
64 -92 46 -92 -11 0 -169 -155 -229 -225 -63 -73 -232 -248 -213 -220 8 11 42
49 75 85 34 36 89 97 122 135 33 39 94 104 136 145 66 65 75 78 71 103 -4 20
-2 26 6 21 8 -4 9 -3 5 5 -4 6 -12 9 -17 6 -5 -4 -12 1 -15 10 -4 11 -13 14
-28 9 -20 -6 -20 -6 -2 8 19 15 19 15 0 41 -10 15 -22 27 -26 27 -5 0 -8 6 -8
13 0 7 -10 17 -22 22 -13 6 -22 18 -22 27 1 10 -3 15 -9 11 -6 -4 -8 0 -4 10
3 10 2 17 -3 17 -6 0 -10 4 -10 10 0 5 -15 29 -33 53 -18 24 -48 72 -66 108
-34 68 -17 54 26 -21z m-1568 -286 c39 -8 42 -34 4 -34 -23 0 -25 2 -13 11 12
8 10 9 -10 5 -14 -3 -35 -6 -47 -6 -36 0 -57 -30 -72 -102 -8 -37 -20 -69 -28
-72 -7 -3 -13 -13 -12 -23 0 -16 1 -16 9 2 12 29 12 11 -1 -41 -8 -32 -14 -41
-20 -32 -6 8 -9 9 -9 1 0 -6 -3 -20 -6 -30 -5 -15 -4 -15 5 -3 15 21 13 4 -5
-55 -23 -76 -55 -226 -55 -258 0 -18 -4 -25 -11 -21 -6 4 -9 1 -6 -6 2 -8 13
-14 24 -15 42 -4 84 -17 79 -26 -6 -9 9 -14 87 -28 27 -5 45 -5 42 0 -3 5 -17
9 -32 10 -27 0 -77 17 -56 18 6 1 53 -8 105 -18 83 -18 148 -25 187 -22 18 1
28 33 78 246 24 105 55 233 69 285 26 101 30 124 17 116 -4 -2 -16 3 -27 11
-19 14 -18 15 15 9 28 -6 32 -5 17 4 -12 8 -37 9 -68 5 -41 -6 -49 -4 -49 9 0
9 -5 16 -11 16 -5 0 -7 -5 -3 -12 5 -8 2 -9 -10 -5 -10 4 -29 7 -43 7 -23 0
-23 1 -8 17 15 14 24 15 80 5 34 -7 76 -12 93 -12 35 0 62 -22 62 -50 0 -13
-5 -17 -15 -14 -11 5 -15 -1 -15 -22 0 -15 -4 -41 -10 -58 -24 -78 -72 -264
-103 -399 -19 -82 -40 -154 -46 -160 -32 -32 -414 15 -456 56 -19 19 -19 33 1
132 50 249 121 502 151 537 21 24 68 32 122 22z m2063 -119 c78 -14 171 -32
205 -40 34 -8 74 -15 88 -15 14 0 40 -7 56 -16 24 -12 30 -20 25 -37 -3 -12
-13 -53 -21 -92 -8 -38 -20 -83 -25 -100 -10 -30 -10 -30 -5 5 14 97 13 108
-2 43 -9 -40 -22 -74 -28 -77 -6 -2 -36 2 -66 10 l-54 14 52 -5 c43 -3 55 -1
62 13 10 20 30 103 36 151 6 48 15 51 16 5 l1 -39 9 39 c11 48 -1 59 -80 75
-70 14 -112 15 -91 1 19 -12 -29 -6 -160 21 -52 10 -99 19 -105 20 -5 0 -1 4
10 8 15 6 10 9 -25 15 -31 5 -46 3 -52 -6 -4 -7 -8 -11 -9 -8 0 3 -2 13 -4 23
-4 22 -4 22 167 -8z m-1952 -93 c46 -23 80 -75 80 -123 0 -65 -21 -141 -46
-166 -13 -13 -24 -32 -24 -41 0 -11 -3 -13 -8 -6 -10 16 -97 30 -88 15 4 -6
12 -9 17 -6 5 3 6 -1 3 -9 -4 -9 -1 -16 6 -16 7 0 1 -11 -14 -25 -24 -22 -56
-25 -56 -4 0 5 -7 9 -15 9 -11 0 -13 8 -9 33 4 24 3 28 -5 17 -6 -8 -11 -25
-11 -37 0 -16 -6 -23 -19 -23 -16 0 -18 6 -14 44 3 24 0 52 -6 62 -6 11 -11
14 -11 7 0 -8 -7 -10 -17 -6 -16 6 -17 5 -3 -12 13 -16 13 -18 0 -13 -19 6
-33 64 -27 109 10 76 70 172 121 195 43 19 105 17 146 -4z m3728 -908 c1 -16
8 -39 14 -52 19 -37 -8 -76 -55 -80 -20 -2 -37 -2 -38 0 0 2 -6 40 -12 85
l-13 82 26 3 c49 6 75 -6 78 -38z"/>
<path d="M2752 5564 c-23 -10 -32 -20 -28 -30 3 -8 1 -12 -4 -9 -5 3 -12 -7
-15 -22 -3 -15 -10 -44 -15 -64 -13 -49 -13 -50 14 -82 21 -24 27 -26 50 -17
24 9 27 14 24 52 -3 40 -5 43 -36 46 -18 2 -30 7 -27 12 3 4 23 6 45 3 37 -5
40 -4 41 18 3 67 1 64 46 61 33 -2 41 0 39 13 -5 37 -73 46 -134 19z"/>
<path d="M6440 3216 c-33 -12 -120 -66 -107 -66 4 0 -2 -19 -12 -42 -70 -166
-8 -267 181 -294 90 -12 174 62 197 175 25 118 -21 205 -121 230 -59 14 -94
13 -138 -3z m26 -33 c-16 -56 -4 -113 25 -113 9 0 112 44 141 60 23 13 31 13
23 0 -3 -6 1 -7 9 -4 9 3 16 1 16 -5 0 -10 -26 -24 -138 -74 -18 -9 -21 -16
-17 -41 3 -17 7 -47 9 -66 7 -53 14 -81 26 -95 7 -9 8 -15 1 -19 -14 -9 -53
56 -81 137 -13 37 -27 67 -32 67 -4 0 -5 -7 -2 -15 4 -9 -1 -18 -11 -21 -9 -4
-21 -16 -26 -28 -20 -43 -34 -61 -51 -64 -26 -4 -23 31 6 87 14 25 36 83 51
129 18 54 32 82 41 82 10 0 13 -6 10 -17z"/>
<path d="M7942 2546 c4 -30 13 -72 18 -93 9 -36 9 -35 4 12 -3 28 -8 66 -11
85 -11 67 9 21 23 -52 7 -40 19 -83 26 -95 13 -25 44 -32 35 -9 -4 10 -1 13 7
10 7 -3 35 13 62 36 27 22 54 40 61 40 44 0 -48 52 -162 93 -22 8 -47 17 -56
21 -14 6 -15 1 -7 -48z"/>
</g>
</svg>
